# xmcd
#
# Track frame offsets: 
#        150
#        12884
#        27951
#        41351
#        55172
#        68518
#        81422
#        95173
#        109700
#        123059
#        135251
#        148668
#        163603
#        174682
#        188247
#        202112
#        213836
#        226773
#        241282
#        256319
#        270764
#        285176
#        298271
#        311282
#
# Disc length: 4321 seconds
#
# Revision: 0
# Processed by: cddbd v1.5.2PL0 Copyright (c) Steve Scherf et al.
# Submitted via: ExactAudioCopy v0.99pb3
#
DISCID=4510df18
DTITLE=Ida Kox - Complete Recorded Works 1923-1938 (Vol. 2 - 1924-1925
DTITLE=)
DYEAR=1996
DGENRE=Blues
TTITLE0=Mean Lovin' Man Blues (take 3)
TTITLE1=Down The Road Bound Blues (take 2)
TTITLE2=Last Time Blues (take 2)
TTITLE3=Worried Any How Blues
TTITLE4=Chicago Monkey Man Blues (take 1)
TTITLE5=Chicago Monkey Man Blues (take 2)
TTITLE6=Mean Papa Turn Your Key
TTITLE7=Blues Ain't Nothin' Else But! (take 2)
TTITLE8=Worried In Mind Blues (take 1)
TTITLE9=My Mean Man Blues (take 1)
TTITLE10=Kentucky Man Blues
TTITLE11=Cherry Pickin Blues
TTITLE12=Wild Woman Don't Have The Blues
TTITLE13=Worried In Mind Blues (take 3)
TTITLE14=Death Letter Blues
TTITLE15=My Mean Man Blues (take4)
TTITLE16=Those Married Man Blues
TTITLE17=Misery Blues
TTITLE18=Graveyard Bound Blues
TTITLE19=Mississippi River Blues
TTITLE20=Georgia Hound Blues
TTITLE21=Blue Kentucky Blues
TTITLE22=Black Crepe Blues
TTITLE23=Fare Thee Well Poor Gal
EXTD=
EXTT0=
EXTT1=
EXTT2=
EXTT3=
EXTT4=
EXTT5=
EXTT6=
EXTT7=
EXTT8=
EXTT9=
EXTT10=
EXTT11=
EXTT12=
EXTT13=
EXTT14=
EXTT15=
EXTT16=
EXTT17=
EXTT18=
EXTT19=
EXTT20=
EXTT21=
EXTT22=
EXTT23=
PLAYORDER=
